<?xml version="1.0" encoding="UTF-8"?>
<!DOCTYPE svg PUBLIC "-//W3C//DTD SVG 1.1//EN" "http://www.w3.org/Graphics/SVG/1.1/DTD/svg11.dtd">
<!-- Creator: CorelDRAW X7 -->
<svg xmlns="http://www.w3.org/2000/svg" xml:space="preserve" width="74.8161mm" height="7.0452mm" version="1.1" style="shape-rendering:geometricPrecision; text-rendering:geometricPrecision; image-rendering:optimizeQuality; fill-rule:evenodd; clip-rule:evenodd"
viewBox="0 0 7490 705"
 xmlns:xlink="http://www.w3.org/1999/xlink">
 <defs>
  <style type="text/css">
   <![CDATA[
    .fil0 {fill:black}
    .fil2 {fill:#F36523}
    .fil1 {fill:#F36523}
   ]]>
  </style>
 </defs>
 <g id="Layer_x0020_1">
  <metadata id="CorelCorpID_0Corel-Layer"/>
  <g id="_2255640306816">
   <path class="fil0" d="M6890 656l0 45 45 0 0 -45 -45 0zm165 -65l0 42c0,21 -9,29 -24,29 -15,0 -24,-8 -24,-29l0 -160c0,-21 9,-29 24,-29 15,0 24,8 24,29l0 32 44 0 0 -29c0,-47 -23,-74 -69,-74 -46,0 -69,27 -69,74l0 154c0,47 23,74 69,74 46,0 69,-27 69,-74l0 -39 -44 0zm115 -118c0,-21 10,-29 24,-29 15,0 24,8 24,29l0 160c0,21 -9,29 -24,29 -14,0 -24,-8 -24,-29l0 -160zm-46 157c0,47 25,74 70,74 46,0 71,-27 71,-74l0 -154c0,-47 -25,-74 -71,-74 -45,0 -70,27 -70,74l0 154zm235 -225l-65 0 0 296 41 0 0 -209 35 209 44 0 32 -212 0 212 44 0 0 -296 -65 0 -32 210 -34 -210z"/>
   <path class="fil1" d="M3 700c6,-6 10,-15 13,-27 3,-12 4,-25 4,-41l0 -364c0,-16 -1,-31 -5,-44 -3,-13 -8,-23 -15,-30l439 0c30,0 55,10 76,30 21,21 32,45 32,74l0 118c0,30 -11,56 -32,77 -21,21 -46,31 -76,31l-223 0 0 115c0,14 1,26 3,36 3,10 6,19 11,25l-227 0zm213 -263l98 0c10,0 19,-5 26,-13 8,-9 11,-19 11,-31l0 -81c0,-11 -4,-19 -12,-27 -7,-7 -17,-10 -28,-10l-95 0 0 162z"/>
   <path class="fil1" d="M576 700c7,-9 12,-21 15,-35 3,-13 5,-29 5,-46l0 -358c0,-14 -5,-36 -17,-68l436 0c30,0 55,9 76,25 21,17 32,37 32,60l0 118c0,22 -7,41 -21,58 -14,16 -32,26 -53,30l108 216 -196 0 -115 -216 -61 0 0 142c0,13 2,26 6,39 4,12 10,24 18,35l-233 0zm209 -297l108 0c12,0 21,-4 29,-11 8,-7 12,-16 12,-26l0 -54c0,-11 -4,-19 -12,-27 -8,-7 -17,-10 -29,-10l-108 0 0 128z"/>
   <path class="fil1" d="M1307 700c-25,0 -47,-7 -67,-22l34 -33c10,-11 20,-20 31,-31 9,-10 23,-21 31,-32l-4 -6c-2,-2 -3,-3 -5,-5 3,-4 32,-32 37,-35 14,3 58,38 121,5 104,-54 66,-209 -45,-216 -17,-1 -54,3 -62,13 -24,8 -49,37 -59,66 -5,16 -7,38 -3,56 4,25 11,29 18,45 -10,13 -28,25 -35,36 -7,-3 -7,-4 -11,-9 -6,3 -56,52 -92,88 -7,-17 -10,-35 -10,-55l0 -250c0,-34 11,-62 33,-86 23,-24 50,-36 81,-36l245 0c32,0 59,11 81,32 23,21 34,47 34,77l0 276c0,34 -11,63 -34,87 -22,23 -49,35 -81,35l-238 0z"/>
   <path class="fil1" d="M1692 700c5,-6 10,-15 13,-27 3,-12 4,-25 4,-41l0 -364c0,-16 -2,-31 -5,-44 -3,-13 -9,-23 -15,-31l439 0c29,0 55,11 76,31 21,21 32,45 32,74l0 118c0,30 -11,56 -32,77 -21,21 -47,31 -76,31l-223 0 0 115c0,14 1,26 3,36 2,10 6,19 10,25l-226 0zm213 -263l98 0c10,0 19,-5 26,-13 7,-9 11,-19 11,-31l0 -81c0,-11 -4,-19 -12,-27 -8,-7 -17,-10 -29,-10l-94 0 0 162z"/>
   <path class="fil2" d="M2766 700c7,-9 12,-21 16,-35 3,-13 5,-29 5,-46l0 -358c0,-14 -6,-36 -17,-68l435 0c30,0 55,9 77,25 21,17 31,37 31,60l0 118c0,22 -7,41 -21,58 -14,16 -31,26 -53,30l108 216 -196 0 -115 -216 -60 0 0 142c0,13 2,26 6,39 4,12 10,24 17,35l-233 0zm210 -297l108 0c11,0 21,-4 28,-11 8,-7 12,-16 12,-26l0 -54c0,-11 -4,-19 -12,-27 -7,-7 -17,-10 -28,-10l-108 0 0 128z"/>
   <path class="fil1" d="M3540 698c7,-9 12,-20 15,-31 3,-12 5,-24 5,-37l0 -358 -110 3c-13,0 -26,2 -39,7 -13,4 -25,11 -35,20l14 -109 479 0 14 105c-11,-8 -23,-13 -37,-17 -13,-4 -27,-6 -41,-6l-109 0 0 351c0,13 3,26 7,39 4,12 9,24 17,35l-180 -2z"/>
   <path class="fil1" d="M4101 700c8,-9 15,-18 19,-28 5,-10 8,-19 8,-29l0 -139 -176 -270c-5,-9 -11,-16 -18,-23 -6,-7 -14,-13 -23,-18l267 0c-2,13 -3,21 -3,24 0,3 5,15 17,34l98 148 87 -145c9,-19 14,-30 14,-33 0,-5 -1,-9 -2,-13 -1,-5 -3,-10 -5,-15l149 0c-11,7 -26,25 -48,55l-168 263 0 118c0,14 2,27 7,40 4,12 11,22 20,31l-243 0z"/>
   <g>
    <path class="fil1" d="M2263 700c5,-5 8,-13 10,-24 2,-10 76,-22 76,-37l0 -392c0,-9 -74,-18 -77,-28 -4,-9 -9,-18 -16,-26l439 0 21 95c-8,-4 -18,-8 -31,-10 -12,-2 -27,-3 -44,-3l-169 0 0 137 95 -61c3,-2 61,41 135,120 -16,13 -24,15 -39,3 -23,-19 -49,-43 -95,-75l-96 78 0 139 183 0c19,0 35,-2 47,-4 13,-2 22,-5 27,-10l-20 98 -446 0z"/>
    <polygon class="fil1" points="2526,467 2567,467 2567,511 2526,511 "/>
    <polygon class="fil1" points="2585,467 2626,467 2626,511 2585,511 "/>
    <polygon class="fil1" points="2585,525 2626,525 2626,569 2585,569 "/>
    <polygon class="fil1" points="2526,525 2567,525 2567,569 2526,569 "/>
   </g>
   <path class="fil2" d="M5757 307c0,-16 -3,-29 -8,-37l-210 0 0 -91 679 0 0 91 -65 0 0 431 -106 0 0 -81c-9,3 -23,4 -40,4 -47,0 -79,-10 -97,-29 -18,-20 -27,-51 -27,-93l0 -61c0,-43 8,-74 25,-95 17,-20 48,-31 93,-31l46 4 0 -49 -195 0c4,8 5,21 5,37l0 94c0,41 -10,72 -29,93 -20,21 -51,31 -94,31 -8,0 -19,-1 -35,-3l0 28c0,18 6,33 17,42 11,10 32,15 62,15 30,0 60,-6 88,-18l0 101c-28,10 -62,15 -102,15 -58,0 -100,-14 -128,-42 -27,-28 -40,-65 -40,-112l0 -201 103 0 0 78c13,1 23,2 31,2 18,0 27,-10 27,-31l0 -92zm259 102c-24,0 -36,11 -36,32l0 61c0,21 12,31 36,31l31 -4 0 -116c-9,-2 -19,-4 -31,-4zm377 -230l0 91 -64 0 0 431 -109 0 0 -431 -64 0 0 -91 62 0 -40 -56c-16,-22 -35,-33 -59,-33 -9,0 -15,1 -21,1l0 -89c12,-1 27,-2 46,-2 20,0 38,5 57,14 19,10 37,28 55,55l73 110 64 0zm124 277c0,-15 -3,-27 -8,-36l-77 0 0 -101 250 0 0 -49 -352 0 0 -91 524 0 0 91 -63 0 0 431 -109 0 0 -288 -63 0c5,8 7,21 7,36l0 80c0,45 -13,79 -40,101 -27,23 -65,34 -115,34 -24,0 -47,-3 -68,-8l0 -98c22,5 43,7 64,7 33,0 50,-13 50,-40l0 -69z"/>
   <path class="fil0" d="M4829 527c0,11 2,18 6,23 5,6 13,8 24,8 11,0 22,-2 31,-6l0 -278 -210 0 0 -85 520 0 0 85 -210 0 0 40c13,-3 28,-4 44,-4 40,0 69,10 87,29 18,19 27,47 27,86l0 97c0,39 -8,68 -25,87 -17,18 -46,27 -86,27l-15 -1 0 -96c13,2 21,1 24,-4 4,-5 5,-12 5,-23l0 -83c0,-11 -2,-18 -6,-23 -5,-6 -13,-8 -25,-8l-30 4 0 278 -100 0 0 -44c-14,4 -29,6 -44,6 -40,0 -69,-9 -87,-26 -18,-18 -27,-46 -27,-84l0 -107c0,-39 9,-67 27,-86 18,-19 47,-29 87,-29l21 2 0 87c-3,-1 -7,-1 -14,-1 -7,0 -13,2 -18,8 -4,5 -6,12 -6,23l0 98zm476 -350l0 12 60 0 0 85 -60 0 0 406 -102 0 0 -406 -60 0 0 -85 60 0 0 -10c0,-24 -7,-41 -21,-51 -14,-10 -38,-15 -74,-15l-45 0c-23,0 -39,3 -50,8 -11,6 -17,16 -17,30l-103 0 0 -10c0,-36 14,-65 41,-88 27,-23 67,-34 120,-34l69 0c57,0 102,13 134,39 32,26 48,66 48,119z"/>
  </g>
 </g>
</svg>
